<mxfile host="65bd71144e">
    <diagram id="DEDVgENWdLserOj1I3qW" name="ページ1">
        <mxGraphModel dx="1741" dy="454" grid="1" gridSize="10" guides="1" tooltips="1" connect="1" arrows="1" fold="1" page="1" pageScale="1" pageWidth="827" pageHeight="1169" math="0" shadow="0">
            <root>
                <mxCell id="0"/>
                <mxCell id="1" parent="0"/>
                <mxCell id="2" value="" style="endArrow=none;html=1;rounded=0;curved=0;" edge="1" parent="1">
                    <mxGeometry width="50" height="50" relative="1" as="geometry">
                        <mxPoint x="80" y="280" as="sourcePoint"/>
                        <mxPoint x="520" y="280" as="targetPoint"/>
                        <Array as="points">
                            <mxPoint x="160" y="280"/>
                            <mxPoint x="160" y="240"/>
                            <mxPoint x="220" y="240"/>
                            <mxPoint x="220" y="280"/>
                            <mxPoint x="280" y="280"/>
                            <mxPoint x="280" y="240"/>
                            <mxPoint x="340" y="240"/>
                            <mxPoint x="340" y="280"/>
                            <mxPoint x="400" y="280"/>
                            <mxPoint x="400" y="240"/>
                            <mxPoint x="460" y="240"/>
                            <mxPoint x="460" y="280"/>
                        </Array>
                    </mxGeometry>
                </mxCell>
                <mxCell id="3" value="clock" style="text;html=1;align=center;verticalAlign=middle;resizable=0;points=[];autosize=1;strokeColor=none;fillColor=none;fontFamily=Lucida Console;fontSize=20;" vertex="1" parent="1">
                    <mxGeometry y="240" width="80" height="40" as="geometry"/>
                </mxCell>
                <mxCell id="4" value="" style="endArrow=none;html=1;rounded=0;curved=0;" edge="1" parent="1">
                    <mxGeometry width="50" height="50" relative="1" as="geometry">
                        <mxPoint x="80" y="320" as="sourcePoint"/>
                        <mxPoint x="520" y="320" as="targetPoint"/>
                        <Array as="points">
                            <mxPoint x="200" y="320"/>
                            <mxPoint x="210" y="360"/>
                            <mxPoint x="360" y="360"/>
                            <mxPoint x="370" y="320"/>
                        </Array>
                    </mxGeometry>
                </mxCell>
                <mxCell id="5" value="" style="endArrow=none;html=1;rounded=0;curved=0;" edge="1" parent="1">
                    <mxGeometry width="50" height="50" relative="1" as="geometry">
                        <mxPoint x="80" y="360" as="sourcePoint"/>
                        <mxPoint x="520" y="360" as="targetPoint"/>
                        <Array as="points">
                            <mxPoint x="200" y="360"/>
                            <mxPoint x="210" y="320"/>
                            <mxPoint x="360" y="320"/>
                            <mxPoint x="370" y="360"/>
                        </Array>
                    </mxGeometry>
                </mxCell>
                <mxCell id="6" value="d[3:0]" style="text;html=1;align=center;verticalAlign=middle;resizable=0;points=[];autosize=1;strokeColor=none;fillColor=none;fontFamily=Lucida Console;fontSize=20;" vertex="1" parent="1">
                    <mxGeometry x="-10" y="320" width="100" height="40" as="geometry"/>
                </mxCell>
                <mxCell id="7" value="q[3:0]" style="text;html=1;align=center;verticalAlign=middle;resizable=0;points=[];autosize=1;strokeColor=none;fillColor=none;fontFamily=Lucida Console;fontSize=20;" vertex="1" parent="1">
                    <mxGeometry x="-10" y="400" width="100" height="40" as="geometry"/>
                </mxCell>
                <mxCell id="8" value="" style="endArrow=none;html=1;rounded=0;curved=0;" edge="1" parent="1">
                    <mxGeometry width="50" height="50" relative="1" as="geometry">
                        <mxPoint x="80" y="400" as="sourcePoint"/>
                        <mxPoint x="520" y="440" as="targetPoint"/>
                        <Array as="points">
                            <mxPoint x="160" y="400"/>
                            <mxPoint x="170" y="440"/>
                            <mxPoint x="280" y="440"/>
                            <mxPoint x="290" y="400"/>
                            <mxPoint x="400" y="400"/>
                            <mxPoint x="410" y="440"/>
                        </Array>
                    </mxGeometry>
                </mxCell>
                <mxCell id="9" value="" style="endArrow=none;html=1;rounded=0;curved=0;" edge="1" parent="1">
                    <mxGeometry width="50" height="50" relative="1" as="geometry">
                        <mxPoint x="80" y="440" as="sourcePoint"/>
                        <mxPoint x="520" y="400" as="targetPoint"/>
                        <Array as="points">
                            <mxPoint x="160" y="440"/>
                            <mxPoint x="170" y="400"/>
                            <mxPoint x="280" y="400"/>
                            <mxPoint x="290" y="440"/>
                            <mxPoint x="400" y="440"/>
                            <mxPoint x="410" y="400"/>
                        </Array>
                    </mxGeometry>
                </mxCell>
                <mxCell id="10" value="" style="endArrow=open;html=1;endFill=0;strokeWidth=2;" edge="1" parent="1">
                    <mxGeometry width="50" height="50" relative="1" as="geometry">
                        <mxPoint x="160" y="280" as="sourcePoint"/>
                        <mxPoint x="160" y="240" as="targetPoint"/>
                    </mxGeometry>
                </mxCell>
                <mxCell id="11" value="" style="endArrow=open;html=1;endFill=0;strokeWidth=2;" edge="1" parent="1">
                    <mxGeometry width="50" height="50" relative="1" as="geometry">
                        <mxPoint x="280" y="280" as="sourcePoint"/>
                        <mxPoint x="280" y="240" as="targetPoint"/>
                    </mxGeometry>
                </mxCell>
                <mxCell id="12" value="" style="endArrow=open;html=1;endFill=0;strokeWidth=2;" edge="1" parent="1">
                    <mxGeometry width="50" height="50" relative="1" as="geometry">
                        <mxPoint x="400" y="280" as="sourcePoint"/>
                        <mxPoint x="400" y="240" as="targetPoint"/>
                    </mxGeometry>
                </mxCell>
                <mxCell id="13" value="1100" style="text;html=1;align=center;verticalAlign=middle;resizable=0;points=[];autosize=1;strokeColor=none;fillColor=none;fontFamily=Lucida Console;fontSize=18;" vertex="1" parent="1">
                    <mxGeometry x="80" y="320" width="70" height="40" as="geometry"/>
                </mxCell>
                <mxCell id="14" value="" style="endArrow=classic;html=1;startArrow=oval;startFill=1;" edge="1" parent="1">
                    <mxGeometry width="50" height="50" relative="1" as="geometry">
                        <mxPoint x="160" y="340" as="sourcePoint"/>
                        <mxPoint x="170" y="420" as="targetPoint"/>
                        <Array as="points">
                            <mxPoint x="160" y="390"/>
                        </Array>
                    </mxGeometry>
                </mxCell>
                <mxCell id="16" value="" style="endArrow=none;dashed=1;html=1;" edge="1" parent="1">
                    <mxGeometry width="50" height="50" relative="1" as="geometry">
                        <mxPoint x="160" y="330" as="sourcePoint"/>
                        <mxPoint x="160" y="280" as="targetPoint"/>
                    </mxGeometry>
                </mxCell>
                <mxCell id="17" value="1100" style="text;html=1;align=center;verticalAlign=middle;resizable=0;points=[];autosize=1;strokeColor=none;fillColor=none;fontFamily=Lucida Console;fontSize=18;" vertex="1" parent="1">
                    <mxGeometry x="190" y="400" width="70" height="40" as="geometry"/>
                </mxCell>
                <mxCell id="18" value="1010" style="text;html=1;align=center;verticalAlign=middle;resizable=0;points=[];autosize=1;strokeColor=none;fillColor=none;fontFamily=Lucida Console;fontSize=18;" vertex="1" parent="1">
                    <mxGeometry x="210" y="320" width="70" height="40" as="geometry"/>
                </mxCell>
                <mxCell id="19" value="" style="endArrow=classic;html=1;startArrow=oval;startFill=1;" edge="1" parent="1">
                    <mxGeometry width="50" height="50" relative="1" as="geometry">
                        <mxPoint x="280" y="340" as="sourcePoint"/>
                        <mxPoint x="290" y="420" as="targetPoint"/>
                        <Array as="points">
                            <mxPoint x="280" y="390"/>
                        </Array>
                    </mxGeometry>
                </mxCell>
                <mxCell id="20" value="" style="endArrow=none;dashed=1;html=1;" edge="1" parent="1">
                    <mxGeometry width="50" height="50" relative="1" as="geometry">
                        <mxPoint x="280" y="330" as="sourcePoint"/>
                        <mxPoint x="280" y="280" as="targetPoint"/>
                    </mxGeometry>
                </mxCell>
                <mxCell id="21" value="" style="endArrow=classic;html=1;startArrow=oval;startFill=1;" edge="1" parent="1">
                    <mxGeometry width="50" height="50" relative="1" as="geometry">
                        <mxPoint x="400" y="340" as="sourcePoint"/>
                        <mxPoint x="410" y="420" as="targetPoint"/>
                        <Array as="points">
                            <mxPoint x="400" y="390"/>
                        </Array>
                    </mxGeometry>
                </mxCell>
                <mxCell id="22" value="1010" style="text;html=1;align=center;verticalAlign=middle;resizable=0;points=[];autosize=1;strokeColor=none;fillColor=none;fontFamily=Lucida Console;fontSize=18;" vertex="1" parent="1">
                    <mxGeometry x="310" y="400" width="70" height="40" as="geometry"/>
                </mxCell>
                <mxCell id="23" value="0011" style="text;html=1;align=center;verticalAlign=middle;resizable=0;points=[];autosize=1;strokeColor=none;fillColor=none;fontFamily=Lucida Console;fontSize=18;" vertex="1" parent="1">
                    <mxGeometry x="400" y="320" width="70" height="40" as="geometry"/>
                </mxCell>
                <mxCell id="24" value="0011" style="text;html=1;align=center;verticalAlign=middle;resizable=0;points=[];autosize=1;strokeColor=none;fillColor=none;fontFamily=Lucida Console;fontSize=18;" vertex="1" parent="1">
                    <mxGeometry x="420" y="400" width="70" height="40" as="geometry"/>
                </mxCell>
                <mxCell id="25" value="" style="endArrow=none;dashed=1;html=1;" edge="1" parent="1">
                    <mxGeometry width="50" height="50" relative="1" as="geometry">
                        <mxPoint x="400" y="330" as="sourcePoint"/>
                        <mxPoint x="400" y="280" as="targetPoint"/>
                    </mxGeometry>
                </mxCell>
            </root>
        </mxGraphModel>
    </diagram>
</mxfile>